<?xml version="1.0" encoding="UTF-8"?>
<!--
  v3.2 §3.3 M11 — Reference clip: Reverse triggering.
  A mandatory breath is delivered; the diaphragm then contracts a beat
  later in response, producing a pressure dip mid-expiration. Common in
  deeply sedated ARDS patients on volume control. Not in the recognition
  pool — shown in the read-phase atlas only.
-->
<svg xmlns="http://www.w3.org/2000/svg" viewBox="0 0 800 360"
     role="img" aria-label="Ventilator waveform with reverse triggering"
     font-family="ui-sans-serif, system-ui, -apple-system, Inter, sans-serif">
  <rect width="800" height="360" fill="#f5f0e6"/>

  <g stroke="#d6d3d1" stroke-width="1" stroke-dasharray="3 3">
    <line x1="60"  y1="20"  x2="60"  y2="320"/>
    <line x1="180" y1="20"  x2="180" y2="320"/>
    <line x1="300" y1="20"  x2="300" y2="320"/>
    <line x1="420" y1="20"  x2="420" y2="320"/>
    <line x1="540" y1="20"  x2="540" y2="320"/>
    <line x1="660" y1="20"  x2="660" y2="320"/>
    <line x1="780" y1="20"  x2="780" y2="320"/>
  </g>
  <line x1="60" y1="160" x2="780" y2="160" stroke="#a8a29e" stroke-width="1"/>
  <line x1="60" y1="55"  x2="780" y2="55"  stroke="#a8a29e" stroke-width="1" stroke-dasharray="4 4"/>
  <line x1="60" y1="260" x2="780" y2="260" stroke="#a8a29e" stroke-width="1.5"/>

  <text x="65" y="15" font-size="10" fill="#57534e">Airway Pressure (cmH2O)</text>
  <text x="65" y="195" font-size="10" fill="#57534e">Flow (L/min)</text>
  <g font-size="10" fill="#57534e" text-anchor="end">
    <text x="55" y="163">0</text><text x="55" y="128">10</text>
    <text x="55" y="93">20</text><text x="55" y="58">30</text>
    <text x="55" y="23">40</text>
  </g>
  <g font-size="10" fill="#57534e" text-anchor="end">
    <text x="55" y="203">60</text><text x="55" y="233">30</text>
    <text x="55" y="263">0</text><text x="55" y="293">-30</text>
    <text x="55" y="323">-60</text>
  </g>

  <!-- Pressure: two mandatory breaths at t=0.3-1.3 and t=3.3-4.3. After
       each, a delayed diaphragmatic contraction at ~1.7s and ~4.7s
       shows up as a brief pressure dip mid-expiration. -->
  <polyline fill="none" stroke="#3b82f6" stroke-width="2"
    points="
      60,142.5
      96,142.5
      180,72.5
      216,72.5
      252,142.5
      264,142.5
      276,128
      288,142.5
      396,142.5
      480,72.5
      516,72.5
      552,142.5
      564,142.5
      576,128
      588,142.5
      780,142.5
    "/>

  <!-- Flow: standard pattern, with small negative blip aligned with the
       reverse trigger. -->
  <polyline fill="none" stroke="#3b82f6" stroke-width="2"
    points="
      60,260
      96,260
      100,230
      216,230
      220,260
      224,290
      264,265
      276,272
      288,265
      396,260
      400,230
      516,230
      520,260
      524,290
      564,265
      576,272
      588,265
      780,260
    "/>

  <g stroke="#0284c7" fill="#0284c7" stroke-width="1.5">
    <line x1="282" y1="180" x2="282" y2="138"/>
    <polygon points="282,131 277,143 287,143"/>
  </g>
  <rect x="222" y="183" width="120" height="22" rx="4" fill="#fef3c7" stroke="#b45309"/>
  <text x="282" y="198" font-size="11" font-weight="700" fill="#92400e" text-anchor="middle">
    delayed pull
  </text>

  <g font-size="10" fill="#57534e" text-anchor="middle">
    <text x="60"  y="350">0 s</text><text x="180" y="350">1 s</text>
    <text x="300" y="350">2 s</text><text x="420" y="350">3 s</text>
    <text x="540" y="350">4 s</text><text x="660" y="350">5 s</text>
    <text x="780" y="350">6 s</text>
  </g>
</svg>
